<?xml version="1.0" encoding="UTF-8"?>
<svg width="24px" height="24px" viewBox="0 0 24 24" version="1.1" xmlns="http://www.w3.org/2000/svg" xmlns:xlink="http://www.w3.org/1999/xlink">
    <!-- Generator: Sketch 43.1 (39012) - http://www.bohemiancoding.com/sketch -->
    <title>ic_qs_show_taps_disabled</title>
    <desc>Created with Sketch.</desc>
    <defs></defs>
    <g id="Page-1" stroke="none" stroke-width="1" fill="none" fill-rule="evenodd">
        <g id="ic_qs_show_taps_disabled" transform="translate(1.000000, 2.000000)" fill-rule="nonzero" fill="#000000">
            <path d="M18.5244353,16.8944344 L20.3600006,18.7299995 L19.0900002,20 L18.2079305,19.1184087 L17.98,20.72 C17.87,21.45 17.29,22 16.54,22 L9.75,22 C9.34,22 8.96,21.83 8.69,21.56 L3.75,16.62 L4.54,15.82 C4.74,15.62 5.02,15.49 5.33,15.49 C5.42,15.49 5.49,15.51 5.57,15.52 L9,16.24 L9,9.91547171 L8,8.91601401 L8,9.24 C7.28201923,8.75936825 6.71191667,8.08156555 6.36699312,7.28389272 L0.649999976,1.56999993 L1.92000008,0.289999962 L6.11448092,4.48448059 L8,6.36956448 L8,6.36999957 L9,7.36999952 L9,7.36959963 L12,10.3697051 L13.2041271,11.5741264 C13.2042537,11.574169 13.2043803,11.5742117 13.2045069,11.5742544 L18.5244434,16.8943778 Z M12,7.80985103 L9.11505426,4.92167209 C9.34091725,4.37977103 9.87511283,4 10.5,4 C11.33,4 12,4.67 12,5.5 L12,7.80985103 Z M8.37584139,4.18163078 L6.9395996,2.74377936 C7.76188691,1.68207447 9.04950173,1 10.5,1 C12.99,1 15,3.01 15,5.5 C15,6.95009902 14.3173891,8.2360258 13.2493482,9.06059943 L13,8.81097174 L13,5.5 C13,4.12 11.88,3 10.5,3 C9.60375452,3 8.81717431,3.47240426 8.37584139,4.18163078 Z" id="Shape"></path>
        </g>
    </g>
</svg>